# xmcd
#
# Track frame offsets: 
#        150
#        14876
#        33394
#        48880
#        60818
#        76739
#        91741
#        105522
#        123672
#        143100
#        165436
#
# Disc length: 3060 seconds
#
# Revision: 1
# Processed by: cddbd v1.5.2PL0 Copyright (c) Steve Scherf et al.
# Submitted via: ExactAudioCopy v0.95a5
#
DISCID=7d0bf20b
DTITLE=Natasja - I Danmark Er Jeg Født
DYEAR=2007
DGENRE=Rap
TTITLE0=Ildebrand I Byen feat. Pharfar
TTITLE1=Gully Slang
TTITLE2=Fi Er Min
TTITLE3=Op Med Ho'det
TTITLE4=Gi' Mig Danmark Tilbage
TTITLE5=Mer Vil Ha Mer feat. Eaggerman
TTITLE6=Gør Det Feat. Yepha
TTITLE7=Monaco feat. Bukki Blæs
TTITLE8=Du Er Så Smuk Og Dejlig
TTITLE9=Timerne Går feat. Mukupa og Luluu Soul
TTITLE10=I Danmark Er Jeg Født
EXTD=
EXTT0=
EXTT1=
EXTT2=
EXTT3=
EXTT4=
EXTT5=
EXTT6=
EXTT7=
EXTT8=
EXTT9=
EXTT10=
PLAYORDER=
